<svg width="30" height="34" viewBox="0 0 30 34" fill="none" xmlns="http://www.w3.org/2000/svg">
<g clip-path="url(#clip0_11_247)">
<path d="M28.7514 6.40983C27.9721 6.01517 27.1507 5.66401 26.3632 5.27566C23.2538 3.74178 20.068 2.27504 16.9226 0.754833C16.1783 0.395221 15.25 -0.22396 14.2747 0.082633C13.6638 0.274734 3.18724 5.41889 1.31464 6.27582C0.894169 6.46823 0.468168 6.59517 0.345835 7.03392C0.189082 7.59686 0.481533 8.00165 0.855595 8.18346C1.20261 8.3522 1.7491 8.61576 2.09949 8.72795C2.17387 10.2923 2.11348 12.015 2.10518 13.5941C2.10241 14.1172 2.20922 14.2903 1.90831 14.6172C1.14867 15.4426 1.58666 16.6754 2.51658 16.8924C3.54409 17.1323 4.53717 16.2299 4.18924 15.1552C4.04632 14.7135 3.84761 14.6671 3.7093 14.4224C3.55131 14.1424 3.6446 10.1931 3.64152 9.52801L5.81979 10.5707C5.81995 11.3897 5.64214 14.3428 5.98039 14.8334C6.33954 15.354 10.892 17.5025 11.7846 17.9374C16.0998 20.0398 13.6704 19.9322 20.8701 16.4824C21.4012 16.2279 23.4925 15.2208 23.7444 14.8735C24.0981 14.3857 23.9314 11.4281 23.942 10.5664C25.4481 9.85028 26.9603 8.99904 28.5569 8.29103C28.9887 8.09955 29.3848 7.93787 29.4405 7.43856C29.5105 6.81462 29.1567 6.61499 28.7514 6.40983ZM22.3259 13.7221L14.8761 17.4409L7.42622 13.7221L7.41285 11.4409L14.8761 15.147L22.3393 11.4409L22.3259 13.7221ZM26.0958 7.41321C25.7524 7.64173 25.7733 7.64081 25.3964 7.82277C23.6122 8.68415 15.2231 13.0276 14.9475 13.0551C14.8301 13.0669 14.6399 12.9387 14.5389 12.8931C14.2182 12.7482 13.9011 12.5955 13.5842 12.4424C13.1334 12.2246 12.6841 12.0037 12.2352 11.7818C11.7039 11.5193 11.1735 11.2551 10.6434 10.9902C10.0821 10.7096 9.5212 10.4281 8.96059 10.1462C8.41963 9.87404 7.87892 9.60143 7.33836 9.32852C6.34088 8.82494 5.35003 8.30855 4.34888 7.8124C4.11185 7.65438 3.8186 7.56099 3.56751 7.42515C3.5442 7.41254 3.44895 7.3187 3.43713 7.3187C3.87496 6.9723 5.61156 6.21096 6.25502 5.90883C7.60695 5.27428 14.4482 1.88423 14.8973 1.90882C15.391 1.93587 19.8158 4.1936 20.6661 4.56596C21.327 4.8555 26.0642 7.09371 26.315 7.3187C26.1748 7.4504 26.2567 7.39984 26.0958 7.41321Z" fill="#43A4FF"/>
<path d="M28.7709 26.913L28.7589 22.8125C30.158 22.4739 30.0709 20.7693 28.5474 20.9362C28.3944 19.6015 27.1783 19.1189 26.0268 19.0258C23.6899 14.7146 17.7173 18.8409 14.876 21.0585C12.0347 18.8409 6.06209 14.7146 3.72522 19.0258C2.57369 19.1189 1.35761 19.6015 1.20455 20.9362C-0.318891 20.7693 -0.406028 22.4739 0.993082 22.8125L0.981095 26.913C0.815426 27.0422 0.333176 27.1443 0.20593 27.6293C0.0487144 28.2284 0.390193 28.6081 0.951128 28.817L14.876 34L28.8009 28.817C29.3618 28.6081 29.7033 28.2284 29.5461 27.6293C29.4188 27.1443 28.9366 27.0422 28.7709 26.913ZM14.876 22.8334C16.4652 21.3727 23.0372 16.4022 24.8108 19.3664C21.7355 19.9336 18.6805 21.6585 14.876 24.2184C11.0715 21.6585 8.01645 19.9336 4.94115 19.3664C6.71477 16.4022 13.2868 21.3727 14.876 22.8334ZM27.2352 27.4329L14.876 32.1704L2.51683 27.4329L2.50269 23.4142L14.876 28.7317L27.2493 23.4142L27.2352 27.4329ZM14.876 26.7922L2.42493 21.4062C4.23191 18.3703 13.4581 24.5892 14.876 25.5703C16.2939 24.5892 25.5201 18.3703 27.3271 21.4062L14.876 26.7922Z" fill="#43A4FF"/>
</g>
<defs>
<clipPath id="clip0_11_247">
<rect width="29.752" height="34" fill="white"/>
</clipPath>
</defs>
</svg>
